<svg xmlns="http://www.w3.org/2000/svg" viewBox="0 0 32 32" fill="none">
  <path d="M15.9998 0C15.7413 0.000172221 15.4858 0.0439215 15.2503 0.128332L3.75031 4.628C3.29018 4.81664 2.88741 5.10947 2.58049 5.48381C2.27358 5.85814 2.07324 6.30123 2.00031 6.772L0.0193095 19.06C-0.0406801 19.4553 -0.00453242 19.8593 0.126836 20.2392C0.258204 20.6191 0.481441 20.964 0.777809 21.244L9.27731 30.564C9.55841 30.8713 9.90498 31.1104 10.2929 31.2643C10.6809 31.4182 11.0997 31.4828 11.5193 31.454L24.4783 30.648C24.9539 30.6132 25.4146 30.4554 25.8146 30.1911C26.2147 29.9268 26.5398 29.5655 26.7573 29.144L31.8693 18.424C32.0589 18.0423 32.1489 17.6216 32.1313 17.1984C32.1138 16.7751 31.9891 16.3626 31.7683 16C31.7683 16 31.7693 15.996 31.7673 15.994L26.2393 5.492C26.0197 5.108 25.7061 4.78347 25.327 4.54608C24.9479 4.30869 24.5146 4.16624 24.0683 4.132L11.9293 3.058C11.6181 3.01427 11.301 3.0023 10.9853 3.022L15.9998 16L29.4883 12.758L24.6103 5.074L15.9998 0ZM15.9998 0C16.5253 0.000344442 17.0435 0.107962 17.5248 0.315332L24.6093 5.074L15.9998 16V0ZM31.7683 16L26.2393 26.506L15.9998 16H31.7683ZM15.9998 16L7.38931 26.924L2.63231 21.244L15.9998 16Z" fill="white"/>
</svg> 